HIERARCHY
ROOT Hips
{
	OFFSET -0.179506 -22.333345 2.821913
	CHANNELS 6 Xposition Yposition Zposition Zrotation Yrotation Xrotation 
	JOINT LeftUpLeg
	{
		OFFSET 6.951974 -9.140623 -0.681533
		CHANNELS 3 Zrotation Yrotation Xrotation
		JOINT LeftLeg
		{
			OFFSET 3.427654 -37.519855 -0.449580
			CHANNELS 3 Zrotation Yrotation Xrotation
			JOINT LeftFoot
			{
				OFFSET -1.359570 -39.796059 -4.369333
				CHANNELS 3 Zrotation Yrotation Xrotation
				JOINT LeftToe
				{
					OFFSET 2.635814 -5.579078 11.928840
					CHANNELS 3 Zrotation Yrotation Xrotation
					End Site
					{
						OFFSET 0.000000 0.000000 0.000000
					}
				}
			}
		}
	}
	JOINT RightUpLeg
	{
		OFFSET -6.767048 -9.052170 -0.431982
		CHANNELS 3 Zrotation Yrotation Xrotation
		JOINT RightLeg
		{
			OFFSET -3.829005 -38.256897 -0.885003
			CHANNELS 3 Zrotation Yrotation Xrotation
			JOINT RightFoot
			{
				OFFSET 1.577377 -39.841461 -4.231180
				CHANNELS 3 Zrotation Yrotation Xrotation
				JOINT RightToe
				{
					OFFSET -2.537174 -4.814398 12.334795
					CHANNELS 3 Zrotation Yrotation Xrotation
					End Site
					{
						OFFSET 0.000000 0.000000 0.000000
					}
				}
			}
		}
	}
	JOINT Spine
	{
		OFFSET -0.253288 10.896323 -2.669631
		CHANNELS 3 Zrotation Yrotation Xrotation
		JOINT Spine1
		{
			OFFSET 0.548704 13.518043 0.109247
			CHANNELS 3 Zrotation Yrotation Xrotation
			JOINT Spine2
			{
				OFFSET 0.145701 5.292222 2.542457
				CHANNELS 3 Zrotation Yrotation Xrotation
				JOINT Neck
				{
					OFFSET -0.277840 21.387037 -4.285703
					CHANNELS 3 Zrotation Yrotation Xrotation
					JOINT Head
					{
						OFFSET 0.515184 6.496960 5.134897
						CHANNELS 3 Zrotation Yrotation Xrotation
						End Site
						{
							OFFSET 0.000000 0.000000 0.000000
						}
					}
				}
				JOINT LeftShoulder
				{
					OFFSET 7.884473 12.174932 -3.408961
					CHANNELS 3 Zrotation Yrotation Xrotation
					JOINT LeftArm
					{
						OFFSET 9.097692 3.046888 -0.886815
						CHANNELS 3 Zrotation Yrotation Xrotation
						JOINT LeftForeArm
						{
							OFFSET 25.961220 -1.277207 -2.745643
							CHANNELS 3 Zrotation Yrotation Xrotation
							JOINT LeftHand
							{
								OFFSET 24.923361 0.898606 -0.117091
								CHANNELS 3 Zrotation Yrotation Xrotation
								End Site
								{
									OFFSET 0.000000 0.000000 0.000000
								}
							}
						}
					}
				}
				JOINT RightShoulder
				{
					OFFSET -8.175920 11.883285 -3.861528
					CHANNELS 3 Zrotation Yrotation Xrotation
					JOINT RightArm
					{
						OFFSET -9.601238 3.255117 -0.914307
						CHANNELS 3 Zrotation Yrotation Xrotation
						JOINT RightForeArm
						{
							OFFSET -25.374195 -1.332924 -2.140099
							CHANNELS 3 Zrotation Yrotation Xrotation
							JOINT RightHand
							{
								OFFSET -25.529810 0.777228 -0.555919
								CHANNELS 3 Zrotation Yrotation Xrotation
								End Site
								{
									OFFSET 0.000000 0.000000 0.000000
								}
							}
						}
					}
				}
			}
		}
	}
}
MOTION
Frames: 15
Frame Time: 0.033333
265.951111 -278.902405 84.395683 -122.141649 2.231044 87.215069 5.041001 3.905265 26.886798 -4.999186 -19.067155 10.780834 -2.987805 9.465009 -28.146503 nan nan nan -3.342425 2.862811 -31.637833 1.988856 -15.816125 31.553478 5.813442 -9.987164 -18.670474 nan nan nan 1.138562 -10.740602 14.183986 4.404853 -2.285165 2.282775 1.586839 -5.135489 1.149580 3.551878 6.846988 -1.911781 -3.331256 -1.020896 5.256060 -27.399756 -3.909209 1.667475 -54.693593 -16.155306 15.946608 -0.289889 -34.180707 12.193217 -0.851470 -14.861907 -8.935444 29.323917 0.929851 0.589470 53.678434 -2.195039 13.701357 -13.455290 20.684792 -5.051047 7.511538 7.297296 2.307143 
265.232086 -278.123962 84.396629 -122.252698 2.347470 87.161056 5.336846 3.768890 27.048778 -5.222113 -18.898219 11.946675 -3.001400 9.111721 -27.681015 nan nan nan -3.254796 3.359856 -31.391527 1.981505 -16.058496 32.430699 5.471427 -10.166634 -18.762376 nan nan nan 1.211447 -10.611150 14.289286 4.590650 -2.388853 2.309249 1.653822 -5.157340 0.981148 3.404780 6.958149 -2.083727 -3.483555 -0.935016 5.416209 -27.483535 -3.583417 1.732874 -55.570883 -16.184800 15.545533 0.783116 -33.106437 11.215848 -1.760093 -14.876674 -9.419144 29.244230 0.915253 0.746138 53.645904 -2.039056 13.622260 -13.596950 20.670300 -4.497740 7.974672 7.398594 1.789768 
264.494324 -277.282776 84.409706 -122.333320 2.660405 87.172329 5.829866 3.419533 27.140759 -5.559698 -18.710156 13.112281 -3.609994 8.909554 -26.890418 nan nan nan -3.017365 4.060283 -31.032912 2.172130 -16.326902 33.003536 5.026916 -10.504592 -18.928798 nan nan nan 1.542680 -10.807767 14.136080 4.709830 -2.435228 2.677016 1.558585 -5.033759 0.688279 3.395026 6.992689 -2.047403 -3.561721 -0.840764 5.229501 -28.083040 -3.275534 1.919813 -54.906496 -15.694668 15.098392 0.466958 -33.575545 11.208351 -2.024517 -14.280651 -9.833357 29.366190 1.017290 0.952800 53.429289 -1.986701 13.657003 -13.443467 20.607714 -3.820702 7.565812 7.599304 1.959846 
263.715759 -276.537476 84.423920 -122.200749 2.797037 87.279537 6.075819 3.091870 26.915279 -5.950565 -18.733367 14.586598 -4.053360 8.889049 -26.209839 nan nan nan -3.024790 4.300486 -30.769382 2.510964 -16.583743 33.591290 4.875514 -10.628163 -19.386985 nan nan nan 1.887924 -11.079312 13.803242 4.727573 -2.551621 2.887318 1.338372 -4.939323 0.593311 3.469502 6.935921 -2.026362 -3.623378 -0.776230 5.271302 -28.514772 -3.261380 2.081715 -54.129794 -14.808507 15.247130 0.031028 -34.118793 11.784815 -0.845934 -13.585569 -8.796555 29.475791 1.277462 1.039875 53.197052 -2.100747 13.675609 -13.190216 20.688898 -3.907286 6.846309 7.375333 1.743764 
262.981995 -275.757690 84.605522 -122.545930 2.747873 86.976281 6.081623 3.128203 27.180931 -6.463432 -18.677809 16.334952 -4.418233 8.720686 -25.966966 nan nan nan -2.873572 4.724775 -30.015147 2.724480 -16.507631 34.233951 4.468921 -10.576503 -20.026829 nan nan nan 1.808879 -10.932836 14.032824 4.706643 -2.626186 3.084733 1.308473 -4.868175 0.338025 3.474960 7.036193 -1.976257 -3.604802 -0.576441 5.417434 -28.852112 -3.377315 2.464788 -53.895751 -13.524126 15.221476 0.810769 -34.971170 11.838264 -0.245342 -12.452469 -6.832599 29.575511 1.869625 1.291276 53.198861 -2.517223 13.625972 -13.368914 20.736593 -3.597777 6.824455 7.542224 2.159322 
262.222504 -274.938141 84.671646 -122.788034 2.785431 86.992122 6.142814 2.902256 27.002871 -7.034039 -18.534843 17.960839 -5.357784 8.683723 -24.823600 nan nan nan -2.584459 4.976288 -29.539203 2.859339 -16.289687 34.760406 3.811483 -10.479396 -20.617750 nan nan nan 1.902138 -10.865162 13.778758 4.787185 -2.701283 3.330920 1.168035 -4.805037 0.317609 3.441756 7.246040 -1.930511 -3.563816 -0.662994 5.144667 -28.825282 -3.731777 2.570440 -53.234830 -12.764607 15.862224 0.072653 -35.074552 11.881846 -1.311318 -12.172984 -7.171691 29.560978 2.156375 1.272684 53.144684 -2.440972 13.732079 -13.273258 20.624529 -3.782182 7.098638 7.295817 2.057720 
261.488281 -274.200043 84.795219 -123.156763 2.737732 86.798760 6.165889 3.024974 26.736389 -7.593936 -17.968987 20.242786 -6.099849 8.127072 -23.999892 nan nan nan -2.316459 5.085325 -28.844556 2.824050 -16.185385 35.408221 3.294862 -10.091547 -21.029253 nan nan nan 2.003610 -10.681672 14.125935 4.747813 -2.684901 2.946265 1.031792 -4.750927 0.448926 3.438358 7.361711 -2.160675 -3.545060 -0.825585 5.422282 -28.591412 -3.612346 2.189021 -53.374979 -12.175278 15.913280 -0.536232 -34.253820 12.432767 0.427489 -12.036809 -7.023070 29.346971 2.073241 1.038578 53.350101 -2.218168 13.602112 -13.029165 20.565274 -3.566018 6.440452 7.020872 1.509537 
260.691650 -273.294952 84.856575 -123.257740 2.706735 86.742498 6.382936 2.882004 26.316291 -8.048291 -16.990130 22.345687 -6.120045 7.448109 -22.834685 nan nan nan -1.904679 4.961417 -28.190034 2.382411 -16.402884 36.069408 2.578612 -9.608614 -21.140571 nan nan nan 1.929449 -10.372787 13.693066 4.947469 -3.033108 3.371726 1.030945 -4.687068 0.299190 3.393300 7.492474 -1.946668 -3.654964 -0.890381 5.460500 -28.372956 -3.836482 2.373914 -53.595090 -12.257858 16.058018 -1.096916 -32.434646 12.921663 -0.569312 -13.055037 -7.985512 29.358229 2.107953 1.138936 53.319706 -1.999495 13.557896 -13.013668 20.123302 -2.807510 6.402726 7.788880 1.896523 
259.880096 -272.445953 84.910233 -123.324736 2.668926 86.729126 6.518259 2.728585 25.656754 -8.475858 -16.155591 24.535105 -6.124245 7.040252 -21.275167 nan nan nan -1.466187 4.619466 -27.541648 2.194148 -16.271498 36.607804 1.827146 -9.394855 -21.411447 nan nan nan 2.029217 -10.210895 13.247422 4.863836 -3.244115 3.811600 1.070000 -4.712211 0.202629 3.170018 7.313566 -1.863250 -3.531116 -0.572424 5.367790 -28.646053 -3.912501 2.591092 -53.435490 -11.539119 15.592030 -0.827862 -32.383474 12.482193 1.310280 -12.017394 -6.131227 29.437293 2.461228 1.310462 53.250258 -2.022935 13.303319 -12.981179 20.099153 -2.574387 6.014783 8.015337 2.208003 
259.111572 -271.748566 84.991158 -123.594140 2.317003 86.788484 6.123109 2.657859 24.627747 -8.960399 -15.042424 27.222535 -5.997235 6.831454 -19.857779 nan nan nan -1.562743 4.608228 -27.090293 2.509103 -15.925515 36.967587 1.318724 -9.372507 -21.624245 nan nan nan 1.854936 -9.930725 13.249523 4.773752 -3.269859 3.473840 1.019887 -4.689775 0.255785 3.124420 7.231862 -2.028442 -3.505477 -0.514971 5.782883 -28.455916 -3.777471 2.354200 -54.157457 -11.452052 15.657609 -0.497672 -30.614704 12.249598 1.147347 -11.916944 -5.951602 29.250389 2.292055 1.067331 53.551616 -1.891280 13.381699 -13.182431 19.836614 -1.851111 6.420464 8.009166 2.483161 
258.410828 -271.106781 85.046295 -124.261466 1.615382 87.306907 5.108631 2.820447 22.815735 -9.168101 -13.491699 30.124550 -6.072265 6.355242 -17.922604 nan nan nan -1.106590 3.791335 -27.356227 2.110097 -13.807718 37.527840 0.122539 -9.473349 -21.716564 nan nan nan 1.542264 -9.301686 12.750658 4.538675 -3.236430 3.510512 0.911699 -4.774569 0.027285 3.049671 7.046527 -2.040266 -3.372301 -0.343874 5.872463 -29.037088 -3.129396 2.361032 -54.009347 -10.931093 14.705325 -0.039623 -30.831847 12.338857 0.122666 -11.572204 -5.377264 29.334233 2.109278 1.267891 53.614426 -1.440722 13.351529 -13.391853 19.999529 -0.682975 7.535444 7.781142 1.855379 
257.681000 -270.156647 85.142731 -124.399980 1.847039 87.201187 5.787915 2.707930 21.817377 -9.727217 -12.730859 32.755962 -6.222522 5.864963 -15.841326 nan nan nan -0.594833 4.002918 -26.465036 2.282816 -13.952934 37.634157 -0.359086 -9.362032 -22.156497 nan nan nan 1.792852 -9.367283 13.170024 4.457083 -3.166420 2.701578 0.821956 -4.683493 0.188313 2.948451 6.919940 -1.877635 -3.296734 -0.099660 6.081257 -29.100818 -2.616835 2.385996 -54.245278 -10.169472 14.247928 0.239525 -30.819200 12.073437 0.454544 -11.137956 -4.860852 29.183818 1.912862 1.270287 53.785778 -1.241189 13.012317 -12.999722 20.166010 -0.170416 7.688669 7.670890 1.680517 
256.984467 -269.471436 85.201500 -124.917089 1.402774 87.259610 5.155475 2.962687 20.323231 -9.788794 -11.504176 35.812280 -4.974911 5.906445 -14.026193 nan nan nan -0.366085 3.711897 -26.037970 2.129185 -12.848904 37.833089 -1.043270 -9.522999 -22.376525 nan nan nan 1.329594 -8.483626 12.507462 4.676872 -3.205695 3.423847 0.776133 -4.691940 0.226130 2.865006 6.741172 -2.033139 -3.158522 -0.209627 6.002546 -28.695623 -3.687257 2.551389 -54.091751 -10.266011 15.427818 -0.439800 -29.089404 12.637590 1.999698 -11.450336 -5.982066 28.992190 2.230856 1.084108 53.897468 -1.081556 12.930690 -12.979764 20.231064 -1.442433 7.370938 7.546550 0.905782 
256.291412 -268.705261 85.278168 -125.474632 1.210628 87.427706 4.755729 2.754184 18.842779 -9.955696 -10.317334 38.415538 -5.974991 5.938086 -11.810648 nan nan nan -0.064524 3.691021 -25.453760 2.024145 -12.382567 37.735128 -1.713654 -9.489283 -22.800446 nan nan nan 1.268665 -8.074194 12.601787 4.601427 -3.206184 3.119453 0.685785 -4.440535 0.050652 2.749509 6.612423 -1.988179 -3.001255 -0.232259 6.246555 -28.621363 -3.298389 2.402846 -54.651403 -10.032901 15.190660 -0.113510 -27.889189 12.733868 1.196807 -12.334432 -6.427527 28.936696 2.035659 1.112162 54.113929 -0.956422 12.821721 -13.279281 20.663806 -1.887012 7.696857 7.218037 -0.818162 
255.532944 -267.708282 85.407768 -125.418276 1.819497 86.758576 5.798584 2.320109 18.370157 -10.314921 -9.602736 40.777167 -6.410930 6.252971 -10.333936 nan nan nan 0.373526 4.579113 -23.231000 2.583721 -13.741632 36.762980 -2.361905 -9.513951 -23.485800 nan nan nan 1.858459 -8.223811 13.491659 4.529512 -3.181821 2.830822 0.549478 -4.305274 -0.031376 2.902208 6.542133 -1.911988 -3.072293 -0.402081 6.313679 -29.176445 -2.658514 2.631199 -54.089605 -9.449888 13.946532 -0.656634 -28.500882 12.775354 -2.784933 -12.029674 -7.014189 29.042561 1.993585 1.151110 54.220490 -1.059147 12.488953 -13.524883 21.258418 -2.233685 8.045122 6.775618 -1.701655 
